<svg width="264" height="264" viewBox="0 0 264 264" fill="none" xmlns="http://www.w3.org/2000/svg">
<g filter="url(#filter0_d_81_2)">
<circle cx="132" cy="128" r="30" fill="white"/>
</g>
<g filter="url(#filter1_d_81_2)">
<path d="M131.499 107.677L141.938 118.168C144.002 120.241 145.408 122.883 145.978 125.76C146.548 128.636 146.257 131.618 145.14 134.328C144.024 137.038 142.133 139.355 139.706 140.984C137.28 142.614 134.427 143.484 131.508 143.484C128.59 143.484 125.737 142.614 123.31 140.984C120.884 139.355 118.993 137.038 117.876 134.328C116.76 131.618 116.468 128.636 117.038 125.76C117.608 122.883 119.015 120.241 121.079 118.168L131.499 107.677Z" fill="#8A0303"/>
<path d="M131.499 107.677L141.938 118.168C144.002 120.241 145.408 122.883 145.978 125.76C146.548 128.636 146.257 131.618 145.14 134.328C144.024 137.038 142.133 139.355 139.706 140.984C137.28 142.614 134.427 143.484 131.508 143.484C128.59 143.484 125.737 142.614 123.31 140.984C120.884 139.355 118.993 137.038 117.876 134.328C116.76 131.618 116.468 128.636 117.038 125.76C117.608 122.883 119.015 120.241 121.079 118.168L131.499 107.677Z" stroke="#8A0303" stroke-width="2" stroke-linecap="round" stroke-linejoin="round"/>
</g>
<defs>
<filter id="filter0_d_81_2" x="0" y="0" width="264" height="264" filterUnits="userSpaceOnUse" color-interpolation-filters="sRGB">
<feFlood flood-opacity="0" result="BackgroundImageFix"/>
<feColorMatrix in="SourceAlpha" type="matrix" values="0 0 0 0 0 0 0 0 0 0 0 0 0 0 0 0 0 0 127 0" result="hardAlpha"/>
<feMorphology radius="2" operator="dilate" in="SourceAlpha" result="effect1_dropShadow_81_2"/>
<feOffset dy="4"/>
<feGaussianBlur stdDeviation="50"/>
<feColorMatrix type="matrix" values="0 0 0 0 0.05 0 0 0 0 0.05 0 0 0 0 0.05 0 0 0 0.25 0"/>
<feBlend mode="normal" in2="BackgroundImageFix" result="effect1_dropShadow_81_2"/>
<feBlend mode="normal" in="SourceGraphic" in2="effect1_dropShadow_81_2" result="shape"/>
</filter>
<filter id="filter1_d_81_2" x="111.754" y="106.677" width="39.5082" height="45.8064" filterUnits="userSpaceOnUse" color-interpolation-filters="sRGB">
<feFlood flood-opacity="0" result="BackgroundImageFix"/>
<feColorMatrix in="SourceAlpha" type="matrix" values="0 0 0 0 0 0 0 0 0 0 0 0 0 0 0 0 0 0 127 0" result="hardAlpha"/>
<feOffset dy="4"/>
<feGaussianBlur stdDeviation="2"/>
<feComposite in2="hardAlpha" operator="out"/>
<feColorMatrix type="matrix" values="0 0 0 0 0 0 0 0 0 0 0 0 0 0 0 0 0 0 0.25 0"/>
<feBlend mode="normal" in2="BackgroundImageFix" result="effect1_dropShadow_81_2"/>
<feBlend mode="normal" in="SourceGraphic" in2="effect1_dropShadow_81_2" result="shape"/>
</filter>
</defs>
</svg>
