<svg width="40" height="47" viewBox="0 0 40 47" fill="none" xmlns="http://www.w3.org/2000/svg">
<g filter="url(#filter0_d_27_8)">
<path d="M19.9906 1L30.6031 11.8403C32.7019 13.9827 34.1315 16.7128 34.7111 19.6852C35.2906 22.6576 34.9942 25.7389 33.8591 28.5392C32.7241 31.3395 30.8015 33.7331 28.3346 35.4171C25.8676 37.1011 22.9671 38 20 38C17.0329 38 14.1324 37.1011 11.6654 35.4171C9.19848 33.7331 7.2759 31.3395 6.14087 28.5392C5.00585 25.7389 4.70937 22.6576 5.28895 19.6852C5.86852 16.7128 7.29811 13.9827 9.39688 11.8403L19.9906 1Z" fill="#8A0303"/>
<path d="M19.9906 1L30.6031 11.8403C32.7019 13.9827 34.1315 16.7128 34.7111 19.6852C35.2906 22.6576 34.9942 25.7389 33.8591 28.5392C32.7241 31.3395 30.8015 33.7331 28.3346 35.4171C25.8676 37.1011 22.9671 38 20 38C17.0329 38 14.1324 37.1011 11.6654 35.4171C9.19848 33.7331 7.2759 31.3395 6.14087 28.5392C5.00585 25.7389 4.70937 22.6576 5.28895 19.6852C5.86852 16.7128 7.29811 13.9827 9.39688 11.8403L19.9906 1Z" stroke="#8A0303" stroke-width="2" stroke-linecap="round" stroke-linejoin="round"/>
</g>
<defs>
<filter id="filter0_d_27_8" x="0" y="0" width="40" height="47" filterUnits="userSpaceOnUse" color-interpolation-filters="sRGB">
<feFlood flood-opacity="0" result="BackgroundImageFix"/>
<feColorMatrix in="SourceAlpha" type="matrix" values="0 0 0 0 0 0 0 0 0 0 0 0 0 0 0 0 0 0 127 0" result="hardAlpha"/>
<feOffset dy="4"/>
<feGaussianBlur stdDeviation="2"/>
<feComposite in2="hardAlpha" operator="out"/>
<feColorMatrix type="matrix" values="0 0 0 0 0 0 0 0 0 0 0 0 0 0 0 0 0 0 0.25 0"/>
<feBlend mode="normal" in2="BackgroundImageFix" result="effect1_dropShadow_27_8"/>
<feBlend mode="normal" in="SourceGraphic" in2="effect1_dropShadow_27_8" result="shape"/>
</filter>
</defs>
</svg>
